<?xml version="1.0" encoding="UTF-8"?>
<svg version="1.1" viewBox="0 0 1600 1600" width="1280" height="1280" xmlns="http://www.w3.org/2000/svg">
<path transform="translate(0)" d="m0 0h1600v1600h-1600z" fill="#F6F6F7"/>
<path transform="translate(800,521)" d="m0 0 4 2 13 12 10 9 8 7 11 10 8 7 12 11 8 7 12 11 8 7 30 27 8 7 12 11 8 7 11 10 8 7 13 12 1 1v125l-4 20-4 12-8 17-12 17-17 17-14 10-15 8-17 6-20 4h-259v-164l4-8 5-4 9-3 10 2 8 7 3 7v124l215-1 15-3 13-5 11-6 11-9 10-11 8-14 4-9 3-11 1-7v-104l-12-11-8-7-11-10-8-7-10-9-12-11-8-7-40-36-8-7-12-11-16-14-5 3-16 13-14 11-16 13-14 11-16 13-14 11-16 13-14 11-16 13-16 12-3 1h-12l-9-6-4-8v-11l5-8 13-11 14-11 16-13 14-11 16-13 14-11 16-13 14-11 16-13 14-11 16-13 14-11z" fill="#1C2340"/>
<path transform="translate(615,394)" d="m0 0h255l19 3 21 7 17 9 11 8 10 9 8 8 10 14 8 14 7 19 4 20v105l-5 8-5 4-11 2-9-3-5-5-4-8-1-99-4-17-7-16-8-11-8-9-12-9-14-7-17-5-11-1h-209l-1 118-5 10-8 5h-13l-8-5-5-8z" fill="#1C2440"/>
<path transform="translate(586,1019)" d="m0 0h40l10 3 10 6 6 7 4 10 1 5v14l-3 11-5 8-8 7-9 4-12 2h-33l-1-1z" fill="#1E2641"/>
<path transform="translate(849,1018)" d="m0 0h21l10 4 8 6 6 9 3 9 1 7v8l-2 10-4 9-6 8-10 6-12 3h-9l-12-3-9-6-7-8-4-10-1-4v-18l4-12 6-8 7-6z" fill="#1E2541"/>
<path transform="translate(476,1019)" d="m0 0h44l10 4 6 7 2 6-1 10-5 7-4 3 6 4 4 4 2 7-1 10-3 6-6 5-7 3-7 1h-40z" fill="#1D2541"/>
<path transform="translate(698,1019)" d="m0 0h17l4 11 13 39 14-38 5-12h13l16 49 1 1 17-49 1-1h16l-2 9-15 42-9 25-1 1h-13l-4-8-14-41-5 12-12 34-2 3h-13l-4-9-17-48-6-17z" fill="#1E2541"/>
<path transform="translate(912,1019)" d="m0 0h43l10 4 7 8 2 6v10l-3 8-7 7-4 2 6 5 12 24v3h-18l-13-26v-2l-4-1-14-1v30h-17z" fill="#1D2541"/>
<path transform="translate(990,1019)" d="m0 0h17l1 32 7-7 7-8 11-11 5-6h20l-2 4-21 21-7 8-3 4 29 31 7 7v2h-20l-20-20-7-8-6-6-1 34h-16l-1-1z" fill="#1F2641"/>
<path transform="translate(1082,1018)" d="m0 0h22l11 4 5 4-3 10-1 2-4-1-10-4h-16l-6 2-1 7 2 4 9 3 18 4 10 6 4 7 1 8-2 8-4 6-9 6-12 3h-10l-15-3-10-5-1-2 5-12 5 2 11 4h18l5-3 1-6-4-4-25-6-10-6-4-7v-14l3-6 5-5 4-3z" fill="#1E2641"/>
<path transform="translate(719,1115)" d="m0 0h11l8 27 6 21 3-3 17-28 10-17h11l-2 16-7 45-1 4h-11l5-34v-4l-12 20-11 18h-8l-11-37h-1l-6 37h-11l3-23 6-38z" fill="#595959"/>
<path transform="translate(832,1115)" d="m0 0h10l4 10 14 47 2 8h-12l-4-13v-2h-33l-2 5-6 10h-12l2-5 34-56z" fill="#595959"/>
<path transform="translate(987,1115)" d="m0 0h9l10 16 17 28 2-7 6-37h11l-1 12-8 50-1 3h-9l-10-16-12-20-6-9-7 44-1 1h-11l10-64z" fill="#595959"/>
<path transform="translate(1089,1114)" d="m0 0h18l10 4 2 3-4 8-5-2-6-2h-12l-10 4-5 6-3 7-1 5v12l3 6 3 3 7 2h10l8-1 1-11 1-5h-15l1-8h25l-1 11-3 19-5 3-12 3h-13l-11-3-9-8-3-7-1-13 4-16 6-9 7-6 9-4z" fill="#595959"/>
<path transform="translate(854,1032)" d="m0 0h11l8 4 5 8 2 14-2 12-5 8-8 4h-11l-8-4-4-6-2-7v-16l3-9 8-7z" fill="#F6F6F7"/>
<path transform="translate(562,1114)" d="m0 0h16l11 4 2 3-4 8-11-4h-14l-6 3-2 4 1 7 9 3 14 3 6 4 3 5v11l-4 7-6 5-11 4h-14l-13-4-4-2 3-9 6 1 10 3h12l6-3h2v-10l-3-2-20-4-6-4-3-5-1-8 3-9 5-5 8-5z" fill="#595959"/>
<path transform="translate(482,1115)" d="m0 0h44l-1 9h-33l-2 15-1 3h30l-1 9-30 1-3 19h32l-1 9h-44l1-12 8-50z" fill="#595959"/>
<path transform="translate(603,1033)" d="m0 0h19l9 3 7 8 2 9v9l-3 10-4 5-9 4-6 1h-14l-1-1z" fill="#F6F6F7"/>
<path transform="translate(553,1019)" d="m0 0h17v76l-1 1h-16z" fill="#1F2641"/>
<path transform="translate(609,1115)" d="m0 0h55l-1 9h-22l-3 22-5 32-1 2h-12l6-40 3-16h-22z" fill="#595959"/>
<path transform="translate(876,1115)" d="m0 0h55l-1 9-21 1-9 55h-12l2-17 6-39h-21z" fill="#595959"/>
<path transform="translate(950,1115)" d="m0 0h12l-2 17-7 44-1 4h-12l3-23z" fill="#595959"/>
<path transform="translate(683,1115)" d="m0 0h11l-1 13-8 51-1 1h-12l10-64z" fill="#595959"/>
<path transform="translate(805,649)" d="m0 0h27v28h-27z" fill="#595959"/>
<path transform="translate(768,649)" d="m0 0h27v28h-27z" fill="#595959"/>
<path transform="translate(805,686)" d="m0 0h27v27h-27z" fill="#595959"/>
<path transform="translate(768,686)" d="m0 0h27v27h-27z" fill="#595959"/>
<path transform="translate(492,1063)" d="m0 0h23l6 3 2 3v8l-5 5-3 1h-23z" fill="#F6F6F7"/>
<path transform="translate(929,1032)" d="m0 0h19l7 3 2 3v9l-4 5-3 1h-21z" fill="#F6F6F7"/>
<path transform="translate(493,1031)" d="m0 0h17l9 3 2 3v7l-4 5-2 1h-23v-18z" fill="#F6F6F7"/>
<path transform="translate(835,1128)" d="m0 0 2 1 6 22v5h-23l1-4 13-23z" fill="#F6F6F7"/>
</svg>
