<svg xmlns="http://www.w3.org/2000/svg" viewBox="0 0 231.48 329.94"><defs><style>.cls-1{fill:#f2f2f2;}</style></defs><g id="Layer_2" data-name="Layer 2"><g id="Layer_1-2" data-name="Layer 1"><path class="cls-1" d="M219.29,143.32a12.19,12.19,0,0,1-12.19-12.19V78.26a53.94,53.94,0,0,0-53.88-53.88H24.38V96.1A12.19,12.19,0,0,1,0,96.1V0H153.22a78.35,78.35,0,0,1,78.26,78.26v52.87A12.19,12.19,0,0,1,219.29,143.32Z"/><path class="cls-1" d="M153.22,329.94H0V230.53a12.19,12.19,0,0,1,24.38,0v75H153.22a53.94,53.94,0,0,0,53.88-53.88V193.37L115.29,111,19.81,187.4a12.19,12.19,0,1,1-15.24-19L116.19,79,231.48,182.49v69.19A78.35,78.35,0,0,1,153.22,329.94Z"/><rect class="cls-1" x="95.62" y="182.46" width="17.25" height="16.67"/><rect class="cls-1" x="118.62" y="182.46" width="17.25" height="16.67"/><rect class="cls-1" x="95.62" y="158.89" width="17.25" height="17.82"/><rect class="cls-1" x="118.62" y="158.89" width="17.25" height="17.82"/></g></g></svg>