<?xml version="1.0" encoding="UTF-8"?>
<svg version="1.1" viewBox="0 0 1600 1600" width="1280" height="1280" xmlns="http://www.w3.org/2000/svg">
<path transform="translate(0)" d="m0 0h1600v1600h-1600z" fill="#1B2140"/>
<path transform="translate(800,521)" d="m0 0 4 2 15 14 8 7 10 9 8 7 12 11 10 9 8 7 11 10 8 7 12 11 8 7 12 11 8 7 10 9 8 7 12 11 8 7 13 12v125l-4 20-7 19-9 16-10 13-15 15-14 10-16 8-16 6-20 4h-259v-164l4-8 5-4 4-2 7-1 10 3 7 8 2 5v124l216-1 14-3 11-4 13-7 10-8 8-8 10-15 6-15 3-14v-105l-13-12-8-7-20-18-8-7-12-11-8-7-11-10-8-7-12-11-8-7-12-11-8-7-10-9-8-6-9 7-14 11-17 14-14 11-10 8-16 13-14 11-16 13-14 11-16 13-13 10-6 3h-12l-9-6-4-8v-11l5-8 13-11 14-11 16-13 14-11 16-13 14-11 16-13 14-11 16-13 14-11 16-13 14-11z" fill="#F2F2F2"/>
<path transform="translate(615,394)" d="m0 0h254l19 3 17 5 19 9 14 10 10 9 8 8 10 14 7 12 6 15 4 15 2 12v103l-4 8-5 4-4 2-7 1-10-3-5-5-4-8-1-100-4-17-8-17-10-13-11-10-15-9-14-5-8-2-9-1-212-1v119l-4 8-7 6-3 1h-12l-8-5-4-6-1-3z" fill="#F2F2F2"/>
<path transform="translate(586,1019)" d="m0 0h39l13 4 9 6 6 8 4 13v14l-4 13-6 8-8 6-7 3-13 2h-32l-1-1z" fill="#F2F2F2"/>
<path transform="translate(849,1018)" d="m0 0h21l12 5 5 4 7 10 3 9 1 14-2 11-4 9-4 6h-2v2l-10 6-12 3h-9l-12-3-9-6-7-8-4-10-1-5v-17l4-12 6-8 7-6z" fill="#F2F2F2"/>
<path transform="translate(476,1019)" d="m0 0h44l10 4 6 7 2 7-1 8-4 7-5 4 6 4 4 5 2 7-1 9-4 7-5 4-8 3-7 1h-39z" fill="#F2F2F2"/>
<path transform="translate(698,1019)" d="m0 0h17l14 41 3 9 4-10 14-39 1-1h13l16 49 1 1 15-43 3-7h16l-2 9-13 36-11 31-1 1h-13l-4-8-14-41-5 12-13 36-1 1h-13l-4-9-19-53-4-12z" fill="#F2F2F2"/>
<path transform="translate(912,1019)" d="m0 0h43l10 4 7 8 2 7v9l-3 8-8 7-3 2 5 4 12 23 1 5h-18l-14-28-2-1-15-1v29l-1 1h-16z" fill="#F2F2F2"/>
<path transform="translate(990,1019)" d="m0 0h17l1 32 9-9 7-8 9-9 5-6h20l-2 4-22 22-1 2h-2l-2 4-4 5 12 13 16 17 8 9v1h-20l-19-19-7-8-7-7-1 34h-16l-1-1z" fill="#F2F2F2"/>
<path transform="translate(1083,1018)" d="m0 0h21l11 4 5 4-4 12-4-1-10-4h-16l-5 2-2 4 1 6 5 3 22 5 10 5 4 5 2 10-2 9-4 6-9 6-12 3h-10l-15-3-10-5-1-2 5-12 5 2 11 4h19l5-5-1-6-6-3-22-5-10-6-4-7v-14l4-7 7-6z" fill="#F2F2F2"/>
<path transform="translate(719,1115)" d="m0 0h11l8 27 6 21 1 1 11-19 18-30h11l-1 10-8 51-1 4h-11l5-34v-4l-9 15-13 21-1 2h-8l-11-36-1-2-6 38h-11l2-17 7-45z" fill="#595959"/>
<path transform="translate(832,1115)" d="m0 0h10l4 10 14 47 2 8h-12l-4-13v-2h-33l-2 5-6 10h-12l2-5 34-56z" fill="#595959"/>
<path transform="translate(987,1115)" d="m0 0h9l10 16 15 25 2 3 2-7 5-33 1-4h11l-1 12-8 50-1 3h-9l-12-19-11-19-5-7-7 45h-12l10-64z" fill="#595959"/>
<path transform="translate(1088,1114)" d="m0 0h19l10 4 2 3-4 8-5-2-6-2h-11l-9 3-5 4-5 10-1 5v12l3 6 6 4 5 1h9l8-1 1-12 1-4h-15l1-8h25l-1 11-3 20-11 4-6 1h-14l-10-3-9-8-3-7-1-5v-9l4-15 6-9 9-7z" fill="#595959"/>
<path transform="translate(854,1032)" d="m0 0h11l8 4 5 8 2 12-1 11-5 10-8 5h-13l-8-5-4-8-1-4v-16l3-9 5-5z" fill="#1D2240"/>
<path transform="translate(560,1114)" d="m0 0h18l11 4 2 3-4 8-11-4h-14l-6 3-2 4v6l4 3 18 3 8 5 3 5 1 6-3 10-9 8-10 3h-14l-14-4-3-2 3-9 6 1 5 2 6 1h11l7-3 1-2v-8l-3-2-20-4-6-4-3-5-1-9 3-8 4-5z" fill="#595959"/>
<path transform="translate(482,1115)" d="m0 0h44l-1 9h-33l-2 15-1 3h30l-1 9-30 1-3 19h32l-1 9h-44l1-12 4-24 4-26z" fill="#595959"/>
<path transform="translate(603,1033)" d="m0 0h19l9 3 7 8 2 8v10l-3 10-4 5-8 4-6 1h-15l-1-1z" fill="#1E2441"/>
<path transform="translate(553,1019)" d="m0 0h17v76l-1 1h-16z" fill="#F2F2F2"/>
<path transform="translate(876,1115)" d="m0 0h55l-1 9-21 1-8 51-1 4h-12l2-17 6-39h-21z" fill="#595959"/>
<path transform="translate(609,1115)" d="m0 0h55l-1 9h-22l-3 22-5 32-1 2h-12l6-40 3-16h-21z" fill="#595959"/>
<path transform="translate(805,648)" d="m0 0h27v29h-27z" fill="#595959"/>
<path transform="translate(768,648)" d="m0 0h27v29h-27z" fill="#595959"/>
<path transform="translate(683,1115)" d="m0 0h11l-1 14-8 50-1 1h-12l10-64z" fill="#595959"/>
<path transform="translate(950,1115)" d="m0 0h12l-1 11-8 50-1 4h-12l3-23z" fill="#595959"/>
<path transform="translate(805,686)" d="m0 0h27v27h-27z" fill="#595959"/>
<path transform="translate(768,686)" d="m0 0h27v27h-27z" fill="#595959"/>
<path transform="translate(492,1063)" d="m0 0h24l6 4 1 2v8l-5 5-3 1h-23z" fill="#1E2441"/>
<path transform="translate(929,1032)" d="m0 0h19l7 3 2 3v9l-4 5-2 1h-22z" fill="#1C2240"/>
<path transform="translate(492,1031)" d="m0 0h19l8 3 2 3v8l-6 5h-23z" fill="#1E2441"/>
<path transform="translate(835,1128)" d="m0 0 2 1 6 22v5h-23l1-4 13-23z" fill="#1B2140"/>
</svg>
