<svg xmlns="http://www.w3.org/2000/svg" viewBox="0 0 1000 1000"><defs><style>.cls-1{fill:#fff;}.cls-2{font-size:68px;font-family:Mulish-ExtraBold, Mulish;font-weight:800;letter-spacing:0.01em;}.cls-10,.cls-2{fill:#022140;}.cls-3{letter-spacing:-0.01em;}.cls-4{letter-spacing:-0.01em;}.cls-5{letter-spacing:0.01em;}.cls-6{font-size:58px;font-family:Mulish-BoldItalic, Mulish;font-weight:700;font-style:italic;letter-spacing:0.1em;}.cls-7{letter-spacing:0.1em;}.cls-8{letter-spacing:0.11em;}.cls-9{letter-spacing:0.03em;}</style></defs><g id="Layer_2" data-name="Layer 2"><g id="Layer_1-2" data-name="Layer 1"><rect class="cls-1" width="1000" height="1000"/><text class="cls-2" transform="translate(427.5 494.62)">BID <tspan class="cls-3" x="141.98" y="0">W</tspan><tspan x="217.94" y="0">OR</tspan><tspan class="cls-4" x="321.5" y="0">K</tspan><tspan class="cls-5" x="367.4" y="0">S</tspan><tspan class="cls-6"><tspan x="0" y="52.61">E</tspan><tspan class="cls-7" x="40.31" y="52.61">S</tspan><tspan class="cls-8" x="83.23" y="52.61">TIM</tspan><tspan class="cls-9" x="205.2" y="52.61">A</tspan><tspan class="cls-8" x="250.56" y="52.61">TING</tspan></tspan></text><path class="cls-10" d="M376.63,478.35a12.19,12.19,0,0,1-12.19-12.19V413.29a53.94,53.94,0,0,0-53.88-53.88H181.72v71.72a12.19,12.19,0,1,1-24.38,0V335H310.56a78.35,78.35,0,0,1,78.26,78.26v52.87A12.19,12.19,0,0,1,376.63,478.35Z"/><path class="cls-10" d="M310.56,665H157.34V565.56a12.19,12.19,0,0,1,24.38,0v75H310.56a53.94,53.94,0,0,0,53.88-53.88V528.4L272.63,446l-95.48,76.42a12.19,12.19,0,1,1-15.24-19l111.62-89.33L388.82,517.52v69.19A78.35,78.35,0,0,1,310.56,665Z"/><rect class="cls-10" x="252.96" y="517.49" width="17.25" height="16.67"/><rect class="cls-10" x="275.96" y="517.49" width="17.25" height="16.67"/><rect class="cls-10" x="252.96" y="493.91" width="17.25" height="17.82"/><rect class="cls-10" x="275.96" y="493.91" width="17.25" height="17.82"/></g></g></svg>